<svg version="1.1" id="Layer_1" xmlns="http://www.w3.org/2000/svg" xmlns:xlink="http://www.w3.org/1999/xlink" x="0px" y="0px"
	 width="100%" viewBox="0 0 720 720" enable-background="new 0 0 720 720" xml:space="preserve">
<path fill="#F5F4EA" opacity="1.000000" stroke="none" 
	d="
M408.000000,721.000000 
	C272.000000,721.000000 136.500000,721.000000 1.000000,721.000000 
	C1.000000,481.000000 1.000000,241.000000 1.000000,1.000000 
	C241.000000,1.000000 481.000000,1.000000 721.000000,1.000000 
	C721.000000,241.000000 721.000000,481.000000 721.000000,721.000000 
	C616.833313,721.000000 512.666687,721.000000 408.000000,721.000000 
M295.837128,626.655273 
	C296.742035,626.489441 297.646973,626.323608 299.161041,626.036194 
	C300.447113,625.025818 301.733185,624.015381 302.999847,622.997009 
	C302.999847,622.997009 303.002441,623.017273 303.684570,622.876709 
	C310.539673,618.532227 317.314362,614.054077 324.267090,609.871887 
	C337.564667,601.873413 350.963501,594.043335 365.165070,586.255554 
	C367.449341,586.126770 369.733643,585.997986 372.798920,586.007141 
	C373.842255,585.892639 374.885559,585.778198 376.773529,585.769165 
	C408.775391,583.147156 438.724548,573.966248 466.385284,557.578796 
	C486.589355,545.609009 504.070282,530.367737 520.381775,512.860413 
	C520.916321,511.891907 521.450867,510.923401 522.062134,509.493744 
	C522.198486,509.187103 522.428894,508.991089 523.540039,508.958923 
	C531.128967,505.353302 538.713013,501.737335 546.310669,498.150269 
	C547.933472,497.384033 549.616394,496.746338 551.252563,496.007111 
	C553.873352,494.823090 556.637390,493.859863 559.060669,492.352661 
	C567.314453,487.219147 575.328247,481.692566 583.663879,476.700439 
	C589.507751,473.200592 595.362854,470.115997 599.162659,463.945557 
	C603.010437,457.697235 607.718262,451.977509 612.078857,446.047943 
	C612.457153,445.533539 613.116943,445.234406 613.542297,444.745087 
	C617.176392,440.564606 620.917847,436.467438 624.357117,432.131104 
	C626.598633,429.304993 628.321960,426.074280 630.396729,423.108276 
	C636.416687,414.502319 642.051086,405.699432 645.626160,395.726135 
	C646.676514,392.795959 648.401367,390.073181 649.176147,387.088928 
	C649.847900,384.501556 649.612732,381.678711 649.859314,378.198761 
	C652.848267,367.132416 655.837158,356.066071 659.108032,344.259430 
	C659.394775,342.169128 659.681458,340.078857 660.370239,337.320892 
	C660.540649,334.891876 660.710999,332.462891 661.062744,329.367828 
	C661.030579,328.911591 660.998413,328.455383 661.164795,327.347321 
	C661.136353,326.896881 661.107910,326.446411 661.288452,325.269226 
	C661.292786,324.516693 661.297180,323.764130 661.589294,322.390289 
	C661.623230,321.259430 661.657166,320.128601 661.898682,318.127899 
	C661.854187,315.742371 661.809753,313.356812 661.918396,310.051361 
	C661.831482,304.709808 661.744507,299.368256 661.841614,293.232605 
	C661.539673,290.492340 661.237732,287.752045 661.025757,284.136444 
	C658.494141,262.340027 653.255676,241.308090 644.141113,221.240311 
	C628.347839,186.467651 605.017700,157.896591 573.812622,135.995667 
	C563.367859,128.665115 551.919983,122.763832 540.910706,115.491776 
	C535.768799,106.810455 522.304932,100.727043 511.919403,102.085571 
	C510.120789,102.320839 507.764191,101.756531 506.327484,100.678810 
	C500.751892,96.496376 495.203278,95.647560 490.429565,98.271446 
	C486.711090,96.361786 483.525574,93.524940 480.089233,93.178871 
	C468.229584,91.984528 456.289124,91.436180 444.366333,91.077385 
	C435.771851,90.818733 427.298767,90.870811 418.746124,93.604553 
	C410.666504,96.187103 401.839783,96.335754 393.461334,98.117607 
	C388.691742,99.131950 384.180756,101.329880 379.517914,102.888939 
	C375.776123,104.140030 371.792206,104.827240 368.250122,106.480888 
	C361.494751,109.634659 355.291382,114.282471 348.286804,116.515877 
	C338.384521,119.673203 331.718567,126.714287 324.548370,133.264374 
	C321.686279,135.878906 319.065796,136.921036 315.227692,136.073959 
	C313.314240,135.651657 311.084747,136.661224 308.139923,137.042679 
	C293.902740,136.301758 279.670990,135.089447 265.427185,134.926300 
	C241.851028,134.656250 219.156494,140.012909 197.335587,148.439835 
	C164.767700,161.017120 136.984497,180.872528 114.490242,207.510513 
	C105.880722,217.706009 99.317642,229.629608 91.242523,241.001419 
	C90.896255,241.692154 90.549988,242.382874 90.035950,243.470413 
	C90.035950,243.470413 89.924736,243.886627 89.268166,244.080322 
	C86.553780,249.738663 83.839394,255.397018 80.774269,261.687683 
	C79.405785,265.672882 78.037300,269.658051 76.283882,273.992249 
	C76.146568,274.306702 76.009254,274.621155 75.441055,275.526703 
	C65.489326,303.720612 62.237652,332.710297 64.954826,362.445099 
	C67.201576,387.031891 73.688904,410.476135 84.044250,432.818115 
	C95.376060,457.266937 111.529373,478.197784 131.016357,496.757202 
	C151.360107,516.132629 175.127686,529.751648 201.121201,539.789246 
	C207.969849,542.433838 208.782944,543.180298 208.794159,550.610046 
	C208.812225,562.568481 208.649857,574.529480 208.856003,586.484314 
	C208.968002,592.979797 209.937927,593.338562 215.307297,589.853333 
	C216.283997,589.219360 217.219498,588.521545 218.200882,587.895325 
	C228.108368,581.573914 238.021454,575.261292 248.655151,568.985962 
	C249.421524,568.303345 250.187897,567.620789 251.284256,566.493713 
	C251.785004,566.277710 252.285736,566.061707 253.617325,565.964417 
	C255.678467,566.446960 257.718781,567.194275 259.804962,567.358521 
	C264.522278,567.729736 269.262238,567.813110 274.645905,568.103760 
	C275.413971,568.523254 276.182037,568.942810 277.123291,569.994995 
	C280.407227,571.330688 283.691193,572.666321 287.474762,574.516235 
	C289.982361,575.370667 292.489960,576.225098 294.980682,577.814697 
	C295.130035,578.533813 295.279388,579.252869 295.302216,580.772339 
	C295.329956,581.850464 295.357666,582.928528 295.137146,584.913391 
	C295.169922,598.265991 295.202698,611.618530 295.201477,625.406311 
	C295.241058,625.718811 295.396637,625.954834 295.837128,626.655273 
z"/>
<path fill="#F48529" opacity="1.000000" stroke="none" 
	d="
M661.657593,294.026703 
	C661.744507,299.368256 661.831482,304.709808 661.467346,310.537445 
	C660.018188,313.682343 659.020081,316.341187 658.016235,319.334961 
	C658.013489,320.116669 658.016602,320.563446 657.741089,321.281311 
	C656.183594,326.307251 654.835510,331.044800 653.644714,335.821564 
	C652.348450,341.021301 651.218628,346.262299 649.979126,351.476501 
	C648.532166,357.563019 647.377563,363.745605 645.487366,369.693054 
	C643.342163,376.443024 640.862183,383.134491 637.909058,389.567383 
	C634.370361,397.275604 630.178650,404.683960 626.262878,412.218658 
	C626.189819,412.359192 626.041626,412.467896 625.912109,412.570770 
	C619.322388,417.805786 617.019592,425.324066 614.886719,433.278107 
	C614.166687,434.374054 613.583862,435.198029 612.636719,436.061523 
	C603.871521,439.243256 599.318176,445.666473 597.003662,454.001007 
	C597.000000,454.000000 597.004883,454.008057 596.650208,454.049927 
	C595.532776,455.393036 594.770020,456.694305 593.807861,458.259338 
	C589.160828,461.970947 584.809082,465.552094 580.243347,468.835754 
	C573.265015,473.854492 566.284546,478.897980 559.026123,483.490021 
	C553.929321,486.714508 548.368347,489.205322 542.684814,492.161194 
	C539.906738,492.538818 537.458496,492.778931 535.034058,492.695435 
	C535.129517,491.945038 535.201172,491.518311 535.506104,490.857483 
	C536.686279,489.068298 537.718323,487.558044 538.565247,485.950317 
	C542.414185,478.644318 546.211060,471.310822 550.064819,463.800568 
	C550.103027,463.613892 550.086121,463.233154 550.356201,462.987000 
	C551.660461,460.138306 552.521667,457.450470 553.756165,454.946716 
	C563.714844,434.749176 566.545349,412.772491 568.635803,390.867065 
	C569.826111,378.393982 568.110657,365.643616 567.728394,352.617004 
	C566.166626,343.742096 564.808105,335.217957 562.952209,326.803558 
	C556.676819,298.351868 543.118835,273.261810 526.124939,250.011871 
	C514.290588,233.820877 499.321960,220.516266 483.413086,208.415741 
	C477.543365,203.951126 470.772858,200.670761 464.240906,196.540543 
	C456.376862,192.473877 448.685150,188.716949 440.732544,184.898651 
	C440.115601,184.823181 439.759521,184.809097 439.219513,184.483337 
	C426.227814,178.335556 412.920471,174.192505 398.615082,172.256592 
	C397.850677,172.150986 397.408691,172.127716 396.755981,171.845978 
	C395.687469,171.455322 394.829651,171.323135 393.594818,171.095261 
	C390.191010,170.218109 387.164215,169.436630 384.031189,168.351639 
	C369.473511,157.695374 353.783203,149.755890 336.949768,143.607178 
	C333.885071,139.499329 335.449402,136.977020 339.091827,134.940506 
	C345.557800,131.325272 351.793701,127.220612 358.498230,124.127953 
	C368.922943,119.319229 379.567169,114.940338 390.317535,110.910622 
	C393.721741,109.634583 398.021149,110.785934 401.463348,109.564865 
	C412.467010,105.661484 423.420929,102.125908 435.348633,102.902374 
	C438.279205,103.093155 441.059570,102.013374 441.463501,98.058136 
	C444.941742,97.992805 447.972137,98.003326 451.281433,98.286819 
	C458.542297,99.371956 465.569000,99.916656 472.492554,101.076996 
	C478.540405,102.090584 484.474579,103.786613 490.453796,105.202988 
	C492.855652,105.771950 495.321686,106.188927 497.622162,107.042534 
	C502.843689,108.980042 508.317139,107.094208 513.944580,110.890991 
	C523.530884,117.358765 535.091003,120.812180 545.396606,126.326721 
	C556.600830,132.322128 567.420349,139.063690 578.202576,145.807663 
	C582.638245,148.582077 587.107849,151.702454 590.563232,155.560120 
	C597.612854,163.430283 603.999695,171.895401 610.631409,180.138092 
	C615.067627,185.651993 619.560120,191.125534 623.834656,196.763260 
	C627.922974,202.155380 631.909973,207.638428 635.646729,213.276871 
	C637.440125,215.982986 638.700012,219.079605 639.942505,222.105713 
	C642.183411,227.563736 643.445312,233.600830 646.551941,238.482239 
	C650.599548,244.842163 652.628662,251.221970 653.229919,258.747009 
	C653.934875,267.570831 656.344971,276.258392 658.011169,285.426056 
	C658.350281,288.963440 657.078613,292.800720 661.657593,294.026703 
z"/>
<path fill="#CBCA66" opacity="1.000000" stroke="none" 
	d="
M247.932968,568.946106 
	C238.021454,575.261292 228.108368,581.573914 218.200882,587.895325 
	C217.219498,588.521545 216.283997,589.219360 215.307297,589.853333 
	C209.937927,593.338562 208.968002,592.979797 208.856003,586.484314 
	C208.649857,574.529480 208.812225,562.568481 208.794159,550.610046 
	C208.782944,543.180298 207.969849,542.433838 201.121201,539.789246 
	C175.127686,529.751648 151.360107,516.132629 131.016357,496.757202 
	C111.529373,478.197784 95.376060,457.266937 84.044250,432.818115 
	C73.688904,410.476135 67.201576,387.031891 64.954826,362.445099 
	C62.237652,332.710297 65.489326,303.720612 75.905396,275.102173 
	C76.469437,274.332855 76.569130,273.988037 76.668823,273.643250 
	C78.037300,269.658051 79.405785,265.672882 81.278740,261.290283 
	C84.497055,255.224136 87.210899,249.555374 89.924736,243.886627 
	C89.924736,243.886627 90.035950,243.470413 90.427826,243.191071 
	C91.153809,242.196396 91.487907,241.481049 91.822014,240.765717 
	C99.317642,229.629608 105.880722,217.706009 114.490242,207.510513 
	C136.984497,180.872528 164.767700,161.017120 197.335587,148.439835 
	C219.156494,140.012909 241.851028,134.656250 265.427185,134.926300 
	C279.670990,135.089447 293.902740,136.301758 308.767700,137.246185 
	C310.311127,137.788177 311.226776,138.126694 312.085114,138.866684 
	C308.550751,145.408783 305.562073,151.900772 301.465027,157.595322 
	C296.990967,163.813858 291.358551,169.186462 286.504730,175.150558 
	C284.625000,177.460266 283.495544,180.380585 282.007019,183.207977 
	C281.989746,183.393250 281.914124,183.757614 281.538025,183.796616 
	C220.042114,209.589767 179.868408,254.546875 159.757706,317.409973 
	C156.098160,328.849152 154.975525,341.099945 152.508728,353.398804 
	C152.275711,356.237793 152.215729,358.653992 152.075439,361.496918 
	C152.121063,374.221985 152.246994,386.520325 152.325775,399.202454 
	C152.427628,400.073456 152.576675,400.560760 152.618225,401.392944 
	C152.936813,403.842316 153.362915,405.946716 153.780487,408.493225 
	C155.073746,415.291321 156.375504,421.647369 157.678970,428.252869 
	C157.680695,428.502350 157.880386,428.959625 157.867645,429.295044 
	C158.141693,430.444244 158.428467,431.257996 158.737793,432.448700 
	C159.460419,434.405640 160.160507,435.985596 160.736633,437.785583 
	C160.670975,438.332184 160.729279,438.658752 160.799652,439.388367 
	C167.180420,461.551392 177.476913,481.381470 190.551315,499.802307 
	C200.693253,514.091492 212.843201,526.565247 225.984436,538.476440 
	C228.394836,540.842590 230.789032,542.850281 233.197113,544.843384 
	C233.210999,544.828857 233.240173,544.799438 233.181458,545.174622 
	C236.165329,548.743713 239.067764,552.087891 242.288040,555.091309 
	C245.848206,558.411621 249.085800,561.768433 248.903442,567.306519 
	C248.498596,568.016113 248.215775,568.481140 247.932968,568.946106 
z"/>
<path fill="#D83E50" opacity="1.000000" stroke="none" 
	d="
M294.997528,577.079590 
	C292.489960,576.225098 289.982361,575.370667 287.096680,573.940125 
	C283.462433,572.030090 280.206268,570.696228 276.950104,569.362305 
	C276.182037,568.942810 275.413971,568.523254 274.121887,567.781372 
	C270.388916,565.737122 267.179932,564.015198 263.969025,561.884033 
	C263.720703,557.104126 267.042847,555.508057 270.185852,554.930786 
	C278.944733,553.322205 287.784241,552.037720 296.642517,551.106750 
	C322.726288,548.365356 347.194092,540.589233 370.404358,528.470093 
	C376.015656,525.540161 382.097961,523.512329 387.967834,521.533936 
	C388.117035,532.537903 388.262054,543.077576 388.419800,554.545105 
	C391.316986,553.727905 392.860138,553.633179 394.014191,552.914001 
	C404.565399,546.338867 414.892731,539.390198 425.597778,533.080505 
	C435.553650,527.212341 445.370636,520.323425 456.203430,516.944031 
	C467.544525,513.406128 480.022736,513.513000 492.062042,512.365662 
	C497.094788,515.478455 502.069427,518.252258 506.994965,521.369934 
	C506.262695,522.628662 505.709473,523.689026 504.874969,524.434631 
	C499.927460,528.855286 495.057556,533.380798 489.887573,537.529663 
	C483.558105,542.609009 477.450439,548.273560 470.373688,552.048096 
	C455.920044,559.757141 441.187897,567.135315 425.995026,573.210693 
	C412.170349,578.738953 397.508087,581.912659 382.500122,583.077148 
	C375.626282,583.610596 368.812897,584.922424 361.576294,585.916626 
	C357.649261,587.196716 353.771667,587.874329 350.646271,589.783447 
	C336.627533,598.346680 322.750793,607.150330 309.007751,616.149536 
	C306.557556,617.753967 304.981934,620.693970 303.002441,623.017273 
	C303.002441,623.017273 302.999847,622.997009 302.614441,622.999207 
	C300.167358,623.341125 298.105652,623.680847 296.029297,623.592896 
	C296.020599,621.459167 296.026581,619.753052 296.304565,617.728455 
	C296.636902,617.256104 296.746277,617.103638 296.750519,616.948303 
	C297.100464,604.108276 297.460480,591.268372 297.708984,578.426331 
	C297.717651,577.977661 296.610626,577.507324 295.766663,577.041748 
	C295.338959,577.050781 295.168243,577.065186 294.997528,577.079590 
z"/>
<path fill="#FAEFD8" opacity="1.000000" stroke="none" 
	d="
M312.142395,138.465195 
	C311.226776,138.126694 310.311127,137.788177 309.196869,137.236389 
	C311.084747,136.661224 313.314240,135.651657 315.227692,136.073959 
	C319.065796,136.921036 321.686279,135.878906 324.548370,133.264374 
	C331.718567,126.714287 338.384521,119.673203 348.286804,116.515877 
	C355.291382,114.282471 361.494751,109.634659 368.250122,106.480888 
	C371.792206,104.827240 375.776123,104.140030 379.517914,102.888939 
	C384.180756,101.329880 388.691742,99.131950 393.461334,98.117607 
	C401.839783,96.335754 410.666504,96.187103 418.746124,93.604553 
	C427.298767,90.870811 435.771851,90.818733 444.366333,91.077385 
	C456.289124,91.436180 468.229584,91.984528 480.089233,93.178871 
	C483.525574,93.524940 486.711090,96.361786 490.429565,98.271446 
	C495.203278,95.647560 500.751892,96.496376 506.327484,100.678810 
	C507.764191,101.756531 510.120789,102.320839 511.919403,102.085571 
	C522.304932,100.727043 535.768799,106.810455 540.552979,115.809853 
	C511.848236,103.275841 482.146149,97.095772 451.002502,98.013855 
	C447.972137,98.003326 444.941742,97.992805 441.019165,97.992378 
	C412.994904,99.459816 387.223022,106.339668 362.828827,118.120987 
	C350.422913,124.112465 337.897614,130.099823 327.492065,139.774429 
	C327.309662,139.820343 327.033600,140.075897 326.791138,140.028168 
	C326.548706,139.980438 326.077789,140.128677 325.627808,140.099579 
	C320.832703,139.535370 316.487549,139.000275 312.142395,138.465195 
z"/>
<path fill="#E88739" opacity="1.000000" stroke="none" 
	d="
M451.281433,98.286819 
	C482.146149,97.095772 511.848236,103.275841 540.562988,116.168579 
	C551.919983,122.763832 563.367859,128.665115 573.812622,135.995667 
	C605.017700,157.896591 628.347839,186.467651 644.141113,221.240311 
	C653.255676,241.308090 658.494141,262.340027 660.739807,284.673401 
	C659.641052,285.141937 658.828308,285.073517 658.015503,285.005066 
	C656.344971,276.258392 653.934875,267.570831 653.229919,258.747009 
	C652.628662,251.221970 650.599548,244.842163 646.551941,238.482239 
	C643.445312,233.600830 642.183411,227.563736 639.942505,222.105713 
	C638.700012,219.079605 637.440125,215.982986 635.646729,213.276871 
	C631.909973,207.638428 627.922974,202.155380 623.834656,196.763260 
	C619.560120,191.125534 615.067627,185.651993 610.631409,180.138092 
	C603.999695,171.895401 597.612854,163.430283 590.563232,155.560120 
	C587.107849,151.702454 582.638245,148.582077 578.202576,145.807663 
	C567.420349,139.063690 556.600830,132.322128 545.396606,126.326721 
	C535.091003,120.812180 523.530884,117.358765 513.944580,110.890991 
	C508.317139,107.094208 502.843689,108.980042 497.622162,107.042534 
	C495.321686,106.188927 492.855652,105.771950 490.453796,105.202988 
	C484.474579,103.786613 478.540405,102.090584 472.492554,101.076996 
	C465.569000,99.916656 458.542297,99.371956 451.281433,98.286819 
z"/>
<path fill="#FAEAD4" opacity="1.000000" stroke="none" 
	d="
M649.778442,378.959930 
	C649.612732,381.678711 649.847900,384.501556 649.176147,387.088928 
	C648.401367,390.073181 646.676514,392.795959 645.626160,395.726135 
	C642.051086,405.699432 636.416687,414.502319 630.396729,423.108276 
	C628.321960,426.074280 626.598633,429.304993 624.357117,432.131104 
	C620.917847,436.467438 617.176392,440.564606 613.542297,444.745087 
	C613.116943,445.234406 612.457153,445.533539 612.078857,446.047943 
	C607.718262,451.977509 603.010437,457.697235 599.162659,463.945557 
	C595.362854,470.115997 589.507751,473.200592 583.663879,476.700439 
	C575.328247,481.692566 567.314453,487.219147 559.060669,492.352661 
	C556.637390,493.859863 553.873352,494.823090 551.252563,496.007111 
	C549.616394,496.746338 547.933472,497.384033 546.310669,498.150269 
	C538.713013,501.737335 531.128967,505.353302 523.240601,508.604919 
	C523.383118,507.230438 523.825012,506.209961 524.585388,505.104980 
	C526.233948,503.876312 527.564026,502.732086 529.111450,501.593719 
	C529.642212,501.461823 529.769958,501.224152 529.888306,500.781494 
	C530.064514,500.676422 530.328613,500.362366 530.691162,500.329041 
	C535.034790,498.506714 539.015747,496.717712 543.340698,494.854736 
	C546.969116,493.176636 550.292542,491.646973 553.532043,489.956329 
	C577.629761,477.380432 597.617493,459.759949 615.002625,439.121002 
	C619.642944,433.612183 623.181274,427.174988 627.205261,421.112244 
	C627.184937,421.060455 627.159241,421.168701 627.460449,421.035706 
	C628.312134,419.981567 628.862610,419.060394 629.636597,418.009949 
	C630.270813,417.337952 630.681396,416.795258 631.374146,416.043274 
	C632.684021,414.139648 633.863037,412.517761 634.714783,410.739105 
	C639.777954,400.166168 644.765442,389.556946 649.778442,378.959930 
z"/>
<path fill="#E88A39" opacity="1.000000" stroke="none" 
	d="
M631.092041,416.252563 
	C630.681396,416.795258 630.270813,417.337952 629.247559,418.014221 
	C628.143066,419.154755 627.651123,420.161713 627.159241,421.168701 
	C627.159241,421.168701 627.184937,421.060455 626.838074,421.093323 
	C625.465454,422.070251 624.381042,422.958771 623.424927,423.968750 
	C620.597412,426.955475 617.820557,429.990204 615.023865,433.006165 
	C617.019592,425.324066 619.322388,417.805786 625.912109,412.570770 
	C626.041626,412.467896 626.189819,412.359192 626.262878,412.218658 
	C630.178650,404.683960 634.370361,397.275604 637.909058,389.567383 
	C640.862183,383.134491 643.342163,376.443024 645.487366,369.693054 
	C647.377563,363.745605 648.532166,357.563019 649.979126,351.476501 
	C651.218628,346.262299 652.348450,341.021301 653.644714,335.821564 
	C654.835510,331.044800 656.183594,326.307251 658.007385,321.478027 
	C659.468750,321.939667 660.385132,322.475647 661.301514,323.011597 
	C661.297180,323.764130 661.292786,324.516693 660.886230,325.671509 
	C660.145142,326.464844 659.806274,326.855835 659.467468,327.246857 
	C659.967041,327.497620 660.466675,327.748383 660.966248,327.999146 
	C660.998413,328.455383 661.030579,328.911591 660.661865,329.893951 
	C660.163391,332.942902 660.065796,335.465729 659.968140,337.988556 
	C659.681458,340.078857 659.394775,342.169128 658.618164,344.724152 
	C657.041199,349.361755 656.322571,353.674774 654.798828,357.681641 
	C649.932861,370.477325 644.820007,383.180298 639.697693,395.876801 
	C636.939575,402.713287 633.967590,409.463470 631.092041,416.252563 
z"/>
<path fill="#BA4956" opacity="1.000000" stroke="none" 
	d="
M524.266907,505.189484 
	C523.825012,506.209961 523.383118,507.230438 522.847290,508.578339 
	C522.428894,508.991089 522.198486,509.187103 521.726685,509.851837 
	C520.802979,511.090027 520.214661,511.970123 519.626404,512.850220 
	C504.070282,530.367737 486.589355,545.609009 466.385284,557.578796 
	C438.724548,573.966248 408.775391,583.147156 376.107178,585.526306 
	C374.299866,585.478699 373.158875,585.673950 372.017914,585.869202 
	C369.733643,585.997986 367.449341,586.126770 364.352173,586.136475 
	C363.016876,585.971985 362.494476,585.926575 361.972076,585.881165 
	C368.812897,584.922424 375.626282,583.610596 382.500122,583.077148 
	C397.508087,581.912659 412.170349,578.738953 425.995026,573.210693 
	C441.187897,567.135315 455.920044,559.757141 470.373688,552.048096 
	C477.450439,548.273560 483.558105,542.609009 489.887573,537.529663 
	C495.057556,533.380798 499.927460,528.855286 504.874969,524.434631 
	C505.709473,523.689026 506.262695,522.628662 507.288452,521.212585 
	C512.092346,515.860840 516.553650,511.010223 521.324585,506.002716 
	C522.511780,505.627045 523.389343,505.408264 524.266907,505.189484 
z"/>
<path fill="#C05865" opacity="1.000000" stroke="none" 
	d="
M361.576294,585.916626 
	C362.494476,585.926575 363.016876,585.971985 363.929810,586.080444 
	C350.963501,594.043335 337.564667,601.873413 324.267090,609.871887 
	C317.314362,614.054077 310.539673,618.532227 303.343506,622.947021 
	C304.981934,620.693970 306.557556,617.753967 309.007751,616.149536 
	C322.750793,607.150330 336.627533,598.346680 350.646271,589.783447 
	C353.771667,587.874329 357.649261,587.196716 361.576294,585.916626 
z"/>
<path fill="#E28A3E" opacity="1.000000" stroke="none" 
	d="
M631.374146,416.043274 
	C633.967590,409.463470 636.939575,402.713287 639.697693,395.876801 
	C644.820007,383.180298 649.932861,370.477325 654.798828,357.681641 
	C656.322571,353.674774 657.041199,349.361755 658.477173,345.094299 
	C655.837158,356.066071 652.848267,367.132416 649.818848,378.579346 
	C644.765442,389.556946 639.777954,400.166168 634.714783,410.739105 
	C633.863037,412.517761 632.684021,414.139648 631.374146,416.043274 
z"/>
<path fill="#D3BE6B" opacity="1.000000" stroke="none" 
	d="
M249.025482,567.061890 
	C249.085800,561.768433 245.848206,558.411621 242.288040,555.091309 
	C239.067764,552.087891 236.165329,548.743713 233.535812,545.167542 
	C241.646652,549.859558 249.344391,554.933838 257.037109,560.355347 
	C255.616882,562.416992 254.201675,564.131287 252.786469,565.845703 
	C252.285736,566.061707 251.785004,566.277710 250.797256,566.722351 
	C249.881989,566.987976 249.453735,567.024902 249.025482,567.061890 
z"/>
<path fill="#F4E0CC" opacity="1.000000" stroke="none" 
	d="
M253.201889,565.905029 
	C254.201675,564.131287 255.616882,562.416992 257.337341,560.391663 
	C258.042877,560.131897 258.443176,560.183105 258.871307,560.185425 
	C258.899170,560.136475 258.788666,560.115051 258.873108,560.382568 
	C259.300079,560.738647 259.642639,560.827148 260.309387,561.050354 
	C261.746002,561.554443 262.858459,561.923889 263.970917,562.293335 
	C267.179932,564.015198 270.388916,565.737122 273.795441,567.736328 
	C269.262238,567.813110 264.522278,567.729736 259.804962,567.358521 
	C257.718781,567.194275 255.678467,566.446960 253.201889,565.905029 
z"/>
<path fill="#B33340" opacity="1.000000" stroke="none" 
	d="
M296.023621,577.047119 
	C296.610626,577.507324 297.717651,577.977661 297.708984,578.426331 
	C297.460480,591.268372 297.100464,604.108276 296.750519,616.948303 
	C296.746277,617.103638 296.636902,617.256104 296.292358,617.254578 
	C296.009796,614.288513 296.064911,611.476562 296.003082,608.667236 
	C295.822174,600.446472 295.594666,592.226746 295.385406,584.006653 
	C295.357666,582.928528 295.329956,581.850464 295.555542,580.129883 
	C295.880463,578.674011 295.952026,577.860596 296.023621,577.047119 
z"/>
<path fill="#B45D68" opacity="1.000000" stroke="none" 
	d="
M295.261292,584.460022 
	C295.594666,592.226746 295.822174,600.446472 296.003082,608.667236 
	C296.064911,611.476562 296.009796,614.288513 296.020325,617.573120 
	C296.026581,619.753052 296.020599,621.459167 295.931732,623.781067 
	C295.695648,624.643066 295.491180,624.834473 295.235474,624.971130 
	C295.202698,611.618530 295.169922,598.265991 295.261292,584.460022 
z"/>
<path fill="#D1D290" opacity="1.000000" stroke="none" 
	d="
M89.596451,243.983475 
	C87.210899,249.555374 84.497055,255.224136 81.454102,260.974121 
	C83.839394,255.397018 86.553780,249.738663 89.596451,243.983475 
z"/>
<path fill="#E88A39" opacity="1.000000" stroke="none" 
	d="
M658.021973,319.000000 
	C659.020081,316.341187 660.018188,313.682343 661.390747,310.997406 
	C661.809753,313.356812 661.854187,315.742371 661.428406,318.563782 
	C659.979431,318.999786 659.000671,318.999908 658.021973,319.000000 
z"/>
<path fill="#E88A39" opacity="1.000000" stroke="none" 
	d="
M658.011169,285.426086 
	C658.828308,285.073517 659.641052,285.141937 660.694824,285.111084 
	C661.237732,287.752045 661.539673,290.492340 661.749634,293.629639 
	C657.078613,292.800720 658.350281,288.963440 658.011169,285.426086 
z"/>
<path fill="#F4E0CC" opacity="1.000000" stroke="none" 
	d="
M277.036682,569.678650 
	C280.206268,570.696228 283.462433,572.030090 286.846863,573.682983 
	C283.691193,572.666321 280.407227,571.330688 277.036682,569.678650 
z"/>
<path fill="#E28A3E" opacity="1.000000" stroke="none" 
	d="
M660.169189,337.654724 
	C660.065796,335.465729 660.163391,332.942902 660.571228,330.226990 
	C660.710999,332.462891 660.540649,334.891876 660.169189,337.654724 
z"/>
<path fill="#C05865" opacity="1.000000" stroke="none" 
	d="
M295.218475,625.188721 
	C295.491180,624.834473 295.695648,624.643066 295.946350,624.208740 
	C298.105652,623.680847 300.167358,623.341125 302.624146,623.003174 
	C301.733185,624.015381 300.447113,625.025818 298.375061,626.062134 
	C296.948792,626.096802 296.308502,626.105530 295.668213,626.114258 
	C295.396637,625.954834 295.241058,625.718811 295.218475,625.188721 
z"/>
<path fill="#E88739" opacity="1.000000" stroke="none" 
	d="
M658.016174,319.334930 
	C659.000671,318.999908 659.979431,318.999786 661.324585,318.998718 
	C661.657166,320.128601 661.623230,321.259430 661.445435,322.700928 
	C660.385132,322.475647 659.468750,321.939667 658.286011,321.206970 
	C658.016602,320.563446 658.013489,320.116669 658.016174,319.334930 
z"/>
<path fill="#FAEAD4" opacity="1.000000" stroke="none" 
	d="
M520.004089,512.855347 
	C520.214661,511.970123 520.802979,511.090027 521.688354,510.082397 
	C521.450867,510.923401 520.916321,511.891907 520.004089,512.855347 
z"/>
<path fill="#F4E0CC" opacity="1.000000" stroke="none" 
	d="
M248.903442,567.306519 
	C249.453735,567.024902 249.881989,566.987976 250.632263,566.944580 
	C250.187897,567.620789 249.421524,568.303345 248.294067,568.966064 
	C248.215775,568.481140 248.498596,568.016113 248.903442,567.306519 
z"/>
<path fill="#D1D290" opacity="1.000000" stroke="none" 
	d="
M91.532265,240.883575 
	C91.487907,241.481049 91.153809,242.196396 90.511711,242.992676 
	C90.549988,242.382874 90.896255,241.692154 91.532265,240.883575 
z"/>
<path fill="#E88739" opacity="1.000000" stroke="none" 
	d="
M661.065552,327.673218 
	C660.466675,327.748383 659.967041,327.497620 659.467468,327.246857 
	C659.806274,326.855835 660.145142,326.464844 660.781738,326.034912 
	C661.107910,326.446411 661.136353,326.896881 661.065552,327.673218 
z"/>
<path fill="#C05865" opacity="1.000000" stroke="none" 
	d="
M372.408417,585.938171 
	C373.158875,585.673950 374.299866,585.478699 375.684875,585.473633 
	C374.885559,585.778198 373.842255,585.892639 372.408417,585.938171 
z"/>
<path fill="#B45D68" opacity="1.000000" stroke="none" 
	d="
M295.752686,626.384766 
	C296.308502,626.105530 296.948792,626.096802 298.070496,626.122925 
	C297.646973,626.323608 296.742035,626.489441 295.752686,626.384766 
z"/>
<path fill="#B45D68" opacity="1.000000" stroke="none" 
	d="
M295.766663,577.041748 
	C295.952026,577.860596 295.880463,578.674011 295.618835,579.729736 
	C295.279388,579.252869 295.130035,578.533813 294.989105,577.447144 
	C295.168243,577.065186 295.338959,577.050781 295.766663,577.041748 
z"/>
<path fill="#D1D290" opacity="1.000000" stroke="none" 
	d="
M76.476349,273.817749 
	C76.569130,273.988037 76.469437,274.332855 76.120850,274.806641 
	C76.009254,274.621155 76.146568,274.306702 76.476349,273.817749 
z"/>
<path fill="#A51904" opacity="1.000000" stroke="none" 
	d="
M281.914124,183.757599 
	C281.914124,183.757614 281.989746,183.393250 282.355621,183.202576 
	C284.711914,181.873489 286.702362,180.735092 289.087585,179.674530 
	C293.638489,178.665833 297.851654,177.759216 301.941071,176.462402 
	C322.003754,170.100159 342.624115,167.887711 363.561798,168.053085 
	C370.421509,168.107254 377.278961,168.446365 384.137451,168.655151 
	C387.164215,169.436630 390.191010,170.218109 393.657715,171.390823 
	C395.053986,171.889526 396.010376,171.996979 396.966736,172.104431 
	C397.408691,172.127716 397.850677,172.150986 398.691437,172.587448 
	C400.763794,180.607712 407.618896,183.069260 413.144653,187.297607 
	C419.573273,193.967850 426.334106,199.943359 431.999725,206.821060 
	C438.395752,214.585495 443.766022,223.190643 449.655670,231.377457 
	C459.861389,245.563828 466.088013,261.647339 472.126434,277.853729 
	C479.235657,296.933899 480.880402,316.932465 481.865540,336.953339 
	C482.599152,351.863007 482.492035,366.858490 478.979584,381.549042 
	C476.402557,392.327118 474.713867,403.460022 470.801300,413.738983 
	C466.305145,425.551086 460.202789,436.822235 454.066711,447.924072 
	C443.585571,466.887207 430.257629,483.739319 414.165161,498.310333 
	C410.235626,501.868347 406.126251,505.261475 401.857056,508.400604 
	C398.082367,511.176147 393.970062,513.492493 389.964478,515.655273 
	C387.201111,509.551331 384.445862,503.861420 377.860992,501.443512 
	C374.605652,500.248230 371.354767,499.005432 368.209656,497.551056 
	C350.075653,489.165466 333.002411,478.992523 317.717529,466.098511 
	C311.666382,460.993927 306.412811,454.943329 300.801117,449.318451 
	C288.917725,437.407196 279.138245,423.859924 270.787964,409.348907 
	C262.108154,394.265228 255.736679,378.230469 251.425491,361.253632 
	C246.747192,342.831055 243.651825,324.317291 244.040039,305.298309 
	C244.178665,298.507233 244.390945,291.693695 245.090347,284.944366 
	C245.873138,277.390411 246.656067,269.748627 248.506836,262.414551 
	C251.043365,252.363083 254.447540,242.518951 257.757935,232.679535 
	C259.287903,228.132126 261.311554,223.726883 263.399323,219.395981 
	C268.069641,209.707703 272.936646,200.114349 277.664215,190.453308 
	C278.004639,189.757629 277.864502,188.826828 278.148926,187.746277 
	C279.538025,186.244019 280.726074,185.000809 281.914124,183.757599 
z"/>
<path fill="#CF1F0C" opacity="1.000000" stroke="none" 
	d="
M390.006836,516.011597 
	C393.970062,513.492493 398.082367,511.176147 401.857056,508.400604 
	C406.126251,505.261475 410.235626,501.868347 414.165161,498.310333 
	C430.257629,483.739319 443.585571,466.887207 454.066711,447.924072 
	C460.202789,436.822235 466.305145,425.551086 470.801300,413.738983 
	C474.713867,403.460022 476.402557,392.327118 478.979584,381.549042 
	C482.492035,366.858490 482.599152,351.863007 481.865540,336.953339 
	C480.880402,316.932465 479.235657,296.933899 472.126434,277.853729 
	C466.088013,261.647339 459.861389,245.563828 449.655670,231.377457 
	C443.766022,223.190643 438.395752,214.585495 431.999725,206.821060 
	C426.334106,199.943359 419.573273,193.967850 413.100647,186.921692 
	C411.531799,181.190231 414.052399,178.323700 419.206573,179.662521 
	C424.351532,180.998993 429.293182,183.101089 434.395477,184.628799 
	C435.942688,185.092041 437.727509,184.761810 439.403473,184.795029 
	C439.759521,184.809097 440.115601,184.823181 440.776093,185.253235 
	C447.905609,191.383896 455.330475,195.846909 464.413208,196.850281 
	C470.772858,200.670761 477.543365,203.951126 483.413086,208.415741 
	C499.321960,220.516266 514.290588,233.820877 526.124939,250.011871 
	C543.118835,273.261810 556.676819,298.351868 562.952209,326.803558 
	C564.808105,335.217957 566.166626,343.742096 567.383789,352.626801 
	C565.682617,354.953949 563.352783,356.792542 563.196594,358.800262 
	C562.614502,366.280365 562.529053,373.820251 562.677307,381.329437 
	C562.799622,387.522308 563.691711,393.697662 563.894226,399.892181 
	C563.995911,403.002838 563.499695,406.169800 562.961914,409.256989 
	C561.809021,415.874969 560.867432,422.574768 559.045532,429.016541 
	C557.674927,433.862793 554.791504,438.260193 553.079712,443.035950 
	C550.754578,449.523102 547.822815,456.024048 550.086121,463.233154 
	C550.086121,463.233154 550.103027,463.613892 549.721191,463.859924 
	C546.138794,467.738617 542.929810,471.363892 539.751099,475.015625 
	C539.443604,475.368927 539.347046,475.898560 539.114258,476.325470 
	C537.282837,479.684357 535.632812,483.162842 533.545410,486.355072 
	C531.797241,489.028595 531.804626,490.559814 535.272827,491.091553 
	C535.201172,491.518311 535.129517,491.945038 534.740845,492.858582 
	C533.058777,495.684357 531.693726,498.023376 530.328613,500.362366 
	C530.328613,500.362366 530.064514,500.676422 529.687378,500.804840 
	C529.038635,501.067047 528.899963,501.285278 528.894165,501.587891 
	C527.564026,502.732086 526.233948,503.876312 524.585388,505.104980 
	C523.389343,505.408264 522.511780,505.627045 520.909058,505.947296 
	C510.790619,508.041443 501.397247,510.034088 492.003906,512.026733 
	C480.022736,513.513000 467.544525,513.406128 456.203430,516.944031 
	C445.370636,520.323425 435.553650,527.212341 425.597778,533.080505 
	C414.892731,539.390198 404.565399,546.338867 394.014191,552.914001 
	C392.860138,553.633179 391.316986,553.727905 388.419800,554.545105 
	C388.262054,543.077576 388.117035,532.537903 388.109436,521.217529 
	C388.833496,518.961792 389.420166,517.486694 390.006836,516.011597 
z"/>
<path fill="#C56811" opacity="1.000000" stroke="none" 
	d="
M384.031189,168.351654 
	C377.278961,168.446365 370.421509,168.107254 363.561798,168.053085 
	C342.624115,167.887711 322.003754,170.100159 301.941071,176.462402 
	C297.851654,177.759216 293.638489,178.665833 289.135712,179.364426 
	C289.788879,177.629471 290.788757,176.282425 292.152100,174.926758 
	C299.368195,168.233994 306.298462,161.626434 313.018127,154.811188 
	C314.674072,153.131683 315.644196,150.776016 317.097931,148.452484 
	C320.239502,145.818405 323.212738,143.463028 326.378113,140.980469 
	C326.828888,140.656265 326.983337,140.397125 327.033600,140.075897 
	C327.033600,140.075897 327.309662,139.820343 327.821869,139.964996 
	C331.220856,141.391861 334.107635,142.674072 336.994415,143.956284 
	C353.783203,149.755890 369.473511,157.695374 384.031189,168.351654 
z"/>
<path fill="#C71F07" opacity="1.000000" stroke="none" 
	d="
M550.356201,462.987000 
	C547.822815,456.024048 550.754578,449.523102 553.079712,443.035950 
	C554.791504,438.260193 557.674927,433.862793 559.045532,429.016541 
	C560.867432,422.574768 561.809021,415.874969 562.961914,409.256989 
	C563.499695,406.169800 563.995911,403.002838 563.894226,399.892181 
	C563.691711,393.697662 562.799622,387.522308 562.677307,381.329437 
	C562.529053,373.820251 562.614502,366.280365 563.196594,358.800262 
	C563.352783,356.792542 565.682617,354.953949 567.359131,353.027893 
	C568.110657,365.643616 569.826111,378.393982 568.635803,390.867065 
	C566.545349,412.772491 563.714844,434.749176 553.756165,454.946716 
	C552.521667,457.450470 551.660461,460.138306 550.356201,462.987000 
z"/>
<path fill="#E88739" opacity="1.000000" stroke="none" 
	d="
M336.949768,143.607178 
	C334.107635,142.674072 331.220856,141.391861 328.004272,139.919098 
	C337.897614,130.099823 350.422913,124.112465 362.828827,118.120987 
	C387.223022,106.339668 412.994904,99.459816 440.571289,98.068237 
	C441.059570,102.013374 438.279205,103.093155 435.348633,102.902374 
	C423.420929,102.125908 412.467010,105.661484 401.463348,109.564865 
	C398.021149,110.785934 393.721741,109.634583 390.317535,110.910622 
	C379.567169,114.940338 368.922943,119.319229 358.498230,124.127953 
	C351.793701,127.220612 345.557800,131.325272 339.091827,134.940506 
	C335.449402,136.977020 333.885071,139.499329 336.949768,143.607178 
z"/>
<path fill="#E28A3E" opacity="1.000000" stroke="none" 
	d="
M614.886719,433.278137 
	C617.820557,429.990204 620.597412,426.955475 623.424927,423.968750 
	C624.381042,422.958771 625.465454,422.070251 626.858398,421.145142 
	C623.181274,427.174988 619.642944,433.612183 615.002625,439.121002 
	C597.617493,459.759949 577.629761,477.380432 553.532043,489.956329 
	C550.292542,491.646973 546.969116,493.176636 543.341492,494.491669 
	C543.003845,493.476257 543.009216,492.750000 543.014648,492.023743 
	C548.368347,489.205322 553.929321,486.714508 559.026123,483.490021 
	C566.284546,478.897980 573.265015,473.854492 580.243347,468.835754 
	C584.809082,465.552094 589.160828,461.970947 594.100952,458.112732 
	C595.397278,456.470917 596.201111,455.239502 597.004883,454.008057 
	C597.004883,454.008057 597.000000,454.000000 597.299927,453.851318 
	C602.733521,447.809052 607.867249,441.915497 613.001038,436.021973 
	C613.583862,435.198029 614.166687,434.374054 614.886719,433.278137 
z"/>
<path fill="#BF250A" opacity="1.000000" stroke="none" 
	d="
M439.219513,184.483337 
	C437.727509,184.761810 435.942688,185.092041 434.395477,184.628799 
	C429.293182,183.101089 424.351532,180.998993 419.206573,179.662521 
	C414.052399,178.323700 411.531799,181.190231 412.949341,186.625229 
	C407.618896,183.069260 400.763794,180.607712 399.013885,172.669785 
	C412.920471,174.192505 426.227814,178.335556 439.219513,184.483337 
z"/>
<path fill="#C71F07" opacity="1.000000" stroke="none" 
	d="
M535.506104,490.857483 
	C531.804626,490.559814 531.797241,489.028595 533.545410,486.355072 
	C535.632812,483.162842 537.282837,479.684357 539.114258,476.325470 
	C539.347046,475.898560 539.443604,475.368927 539.751099,475.015625 
	C542.929810,471.363892 546.138794,467.738617 549.682983,464.046631 
	C546.211060,471.310822 542.414185,478.644318 538.565247,485.950317 
	C537.718323,487.558044 536.686279,489.068298 535.506104,490.857483 
z"/>
<path fill="#E88A39" opacity="1.000000" stroke="none" 
	d="
M612.636719,436.061523 
	C607.867249,441.915497 602.733521,447.809052 597.303589,453.852295 
	C599.318176,445.666473 603.871521,439.243256 612.636719,436.061523 
z"/>
<path fill="#BF250A" opacity="1.000000" stroke="none" 
	d="
M464.240906,196.540543 
	C455.330475,195.846909 447.905609,191.383896 441.036987,185.314636 
	C448.685150,188.716949 456.376862,192.473877 464.240906,196.540543 
z"/>
<path fill="#EC7342" opacity="1.000000" stroke="none" 
	d="
M542.684814,492.161224 
	C543.009216,492.750000 543.003845,493.476257 542.997559,494.565613 
	C539.015747,496.717712 535.034790,498.506714 530.691223,500.329041 
	C531.693726,498.023376 533.058777,495.684357 534.717041,493.182190 
	C537.458496,492.778931 539.906738,492.538818 542.684814,492.161224 
z"/>
<path fill="#E88A39" opacity="1.000000" stroke="none" 
	d="
M596.650208,454.049927 
	C596.201111,455.239502 595.397278,456.470917 594.300415,457.848969 
	C594.770020,456.694305 595.532776,455.393036 596.650208,454.049927 
z"/>
<path fill="#BF250A" opacity="1.000000" stroke="none" 
	d="
M396.755981,171.845978 
	C396.010376,171.996979 395.053986,171.889526 394.034729,171.486511 
	C394.829651,171.323135 395.687469,171.455322 396.755981,171.845978 
z"/>
<path fill="#AB311D" opacity="1.000000" stroke="none" 
	d="
M389.964478,515.655273 
	C389.420166,517.486694 388.833496,518.961792 388.105286,520.753296 
	C382.097961,523.512329 376.015656,525.540161 370.404358,528.470093 
	C347.194092,540.589233 322.726288,548.365356 296.642517,551.106750 
	C287.784241,552.037720 278.944733,553.322205 270.185852,554.930786 
	C267.042847,555.508057 263.720703,557.104126 263.969025,561.884033 
	C262.858459,561.923889 261.746002,561.554443 260.165649,560.844360 
	C259.394745,560.374207 259.091705,560.244629 258.788666,560.115051 
	C258.788666,560.115051 258.899170,560.136475 258.890015,559.813599 
	C254.311554,554.858032 250.316605,549.375488 245.030670,545.803284 
	C238.098587,541.118774 230.020203,538.366150 224.122452,531.809814 
	C217.064529,523.963623 209.140045,516.904541 201.839355,509.267029 
	C194.434921,501.521027 188.233322,492.876984 183.454544,483.215790 
	C178.769318,473.743774 173.826111,464.399384 168.997269,454.605652 
	C168.337616,452.807159 167.676819,451.401978 166.863892,449.660583 
	C166.470261,447.882690 166.228760,446.441071 165.941376,444.613098 
	C164.266525,440.483673 162.637527,436.740631 161.005188,432.748169 
	C161.001816,432.498779 160.994919,432.000000 160.947906,431.674927 
	C159.894073,430.553101 158.887238,429.756348 157.880386,428.959625 
	C157.880386,428.959625 157.680695,428.502350 158.044464,428.213043 
	C158.623703,426.867493 159.141678,425.769073 159.001434,424.762390 
	C158.443497,420.757263 157.788605,416.757538 156.941666,412.804657 
	C156.584854,411.139374 155.662323,409.595306 154.997513,407.663513 
	C154.996643,406.887207 154.995224,406.443573 155.273529,405.715729 
	C155.322311,399.421051 155.133621,393.408081 154.783081,387.404572 
	C154.753876,386.904175 153.632690,386.467590 153.014084,385.538147 
	C153.012527,381.051178 153.015747,377.027374 153.407761,372.899902 
	C153.862305,366.196259 153.928055,359.596313 153.996490,352.597412 
	C154.006516,351.134735 154.013840,350.070984 154.230133,348.891113 
	C154.700409,348.574005 154.881744,348.316650 154.998581,347.595062 
	C156.354843,340.907562 157.316177,334.516113 159.126266,328.374847 
	C161.775986,319.384735 164.442642,310.316132 168.177200,301.749695 
	C173.243576,290.128357 178.489059,278.428375 185.171417,267.705444 
	C194.905716,252.085251 206.787155,238.141785 220.555710,225.599228 
	C237.773804,209.914261 256.587891,197.136414 277.947815,188.005341 
	C277.864502,188.826828 278.004639,189.757629 277.664215,190.453308 
	C272.936646,200.114349 268.069641,209.707703 263.399323,219.395981 
	C261.311554,223.726883 259.287903,228.132126 257.757935,232.679535 
	C254.447540,242.518951 251.043365,252.363083 248.506836,262.414551 
	C246.656067,269.748627 245.873138,277.390411 245.090347,284.944366 
	C244.390945,291.693695 244.178665,298.507233 244.040039,305.298309 
	C243.651825,324.317291 246.747192,342.831055 251.425491,361.253632 
	C255.736679,378.230469 262.108154,394.265228 270.787964,409.348907 
	C279.138245,423.859924 288.917725,437.407196 300.801117,449.318451 
	C306.412811,454.943329 311.666382,460.993927 317.717529,466.098511 
	C333.002411,478.992523 350.075653,489.165466 368.209656,497.551056 
	C371.354767,499.005432 374.605652,500.248230 377.860992,501.443512 
	C384.445862,503.861420 387.201111,509.551331 389.964478,515.655273 
z"/>
<path fill="#943D1F" opacity="1.000000" stroke="none" 
	d="
M154.021164,349.007202 
	C154.013840,350.070984 154.006516,351.134735 153.776672,352.597900 
	C153.263138,352.999542 152.972336,352.992493 152.681763,352.976074 
	C154.975525,341.099945 156.098160,328.849152 159.757706,317.409973 
	C179.868408,254.546875 220.042114,209.589767 281.538025,183.796600 
	C280.726074,185.000809 279.538025,186.244019 278.148926,187.746277 
	C256.587891,197.136414 237.773804,209.914261 220.555710,225.599228 
	C206.787155,238.141785 194.905716,252.085251 185.171417,267.705444 
	C178.489059,278.428375 173.243576,290.128357 168.177200,301.749695 
	C164.442642,310.316132 161.775986,319.384735 159.126266,328.374847 
	C157.316177,334.516113 156.354843,340.907562 154.788513,347.709534 
	C154.300568,348.433197 154.119965,348.691620 154.021164,349.007202 
z"/>
<path fill="#9C3A1E" opacity="1.000000" stroke="none" 
	d="
M165.987259,444.999451 
	C166.228760,446.441071 166.470261,447.882690 166.858704,450.030273 
	C167.669128,452.157135 168.332626,453.578064 168.996124,454.998962 
	C173.826111,464.399384 178.769318,473.743774 183.454544,483.215790 
	C188.233322,492.876984 194.434921,501.521027 201.839355,509.267029 
	C209.140045,516.904541 217.064529,523.963623 224.122452,531.809814 
	C230.020203,538.366150 238.098587,541.118774 245.030670,545.803284 
	C250.316605,549.375488 254.311554,554.858032 258.862122,559.862549 
	C258.443176,560.183105 258.042877,560.131897 257.342377,560.044373 
	C249.344391,554.933838 241.646652,549.859558 233.594543,544.792358 
	C233.240173,544.799438 233.210999,544.828857 233.159698,544.503174 
	C230.728348,542.157654 228.348282,540.137756 225.968201,538.117920 
	C212.843201,526.565247 200.693253,514.091492 190.551315,499.802307 
	C177.476913,481.381470 167.180420,461.551392 161.168915,439.444824 
	C163.013168,441.065338 164.500214,443.032410 165.987259,444.999451 
z"/>
<path fill="#D2C05B" opacity="1.000000" stroke="none" 
	d="
M291.788635,174.935379 
	C290.788757,176.282425 289.788879,177.629471 288.740906,179.286621 
	C286.702362,180.735092 284.711914,181.873489 282.372864,183.017303 
	C283.495544,180.380585 284.625000,177.460266 286.504730,175.150558 
	C291.358551,169.186462 296.990967,163.813858 301.465027,157.595322 
	C305.562073,151.900772 308.550751,145.408783 312.085114,138.866684 
	C316.487549,139.000275 320.832703,139.535370 325.645782,140.345108 
	C326.113708,140.619751 326.185974,141.107635 326.185974,141.107635 
	C323.212738,143.463028 320.239502,145.818405 316.776367,148.580383 
	C308.120544,157.636429 299.954590,166.285904 291.788635,174.935379 
z"/>
<path fill="#943D1F" opacity="1.000000" stroke="none" 
	d="
M153.018951,373.003601 
	C153.015747,377.027374 153.012527,381.051178 153.006866,385.997498 
	C152.793900,390.886292 152.583420,394.852478 152.372940,398.818695 
	C152.246994,386.520325 152.121063,374.221985 152.326691,361.807739 
	C152.778488,365.462463 152.898727,369.233032 153.018951,373.003601 
z"/>
<path fill="#9E391F" opacity="1.000000" stroke="none" 
	d="
M154.996948,407.996155 
	C155.662323,409.595306 156.584854,411.139374 156.941666,412.804657 
	C157.788605,416.757538 158.443497,420.757263 159.001434,424.762390 
	C159.141678,425.769073 158.623703,426.867493 158.042725,427.963562 
	C156.375504,421.647369 155.073746,415.291321 154.082718,408.477112 
	C154.594620,408.011322 154.795792,408.003723 154.996948,407.996155 
z"/>
<path fill="#9E391F" opacity="1.000000" stroke="none" 
	d="
M153.407776,372.899902 
	C152.898727,369.233032 152.778488,365.462463 152.407013,361.381042 
	C152.215729,358.653992 152.275711,356.237793 152.508728,353.398804 
	C152.972336,352.992493 153.263138,352.999542 153.773987,352.996826 
	C153.928055,359.596313 153.862305,366.196259 153.407776,372.899902 
z"/>
<path fill="#9E391F" opacity="1.000000" stroke="none" 
	d="
M152.325775,399.202454 
	C152.583420,394.852478 152.793900,390.886292 153.011627,386.460693 
	C153.632690,386.467590 154.753876,386.904175 154.783081,387.404572 
	C155.133621,393.408081 155.322311,399.421051 155.022736,405.488770 
	C153.903381,404.046692 153.314545,402.547363 152.725708,401.048035 
	C152.576675,400.560760 152.427628,400.073456 152.325775,399.202454 
z"/>
<path fill="#9E391F" opacity="1.000000" stroke="none" 
	d="
M165.941376,444.613098 
	C164.500214,443.032410 163.013168,441.065338 161.156860,439.041809 
	C160.729279,438.658752 160.670975,438.332184 160.768295,437.325653 
	C160.952118,435.429657 160.980331,434.213623 161.008545,432.997559 
	C162.637527,436.740631 164.266525,440.483673 165.941376,444.613098 
z"/>
<path fill="#D3BE6B" opacity="1.000000" stroke="none" 
	d="
M225.984436,538.476440 
	C228.348282,540.137756 230.728348,542.157654 233.145813,544.517700 
	C230.789032,542.850281 228.394836,540.842590 225.984436,538.476440 
z"/>
<path fill="#943D1F" opacity="1.000000" stroke="none" 
	d="
M152.618225,401.392944 
	C153.314545,402.547363 153.903381,404.046692 154.743011,405.772949 
	C154.995224,406.443573 154.996643,406.887207 154.997513,407.663513 
	C154.795792,408.003723 154.594620,408.011322 154.091217,408.035034 
	C153.362915,405.946716 152.936813,403.842316 152.618225,401.392944 
z"/>
<path fill="#9C3A1E" opacity="1.000000" stroke="none" 
	d="
M161.005188,432.748169 
	C160.980331,434.213623 160.952118,435.429657 160.892242,437.105652 
	C160.160507,435.985596 159.460419,434.405640 159.118866,432.428040 
	C159.983215,432.020294 160.489075,432.010132 160.994919,432.000000 
	C160.994919,432.000000 161.001816,432.498779 161.005188,432.748169 
z"/>
<path fill="#9E391F" opacity="1.000000" stroke="none" 
	d="
M160.947906,431.674927 
	C160.489075,432.010132 159.983215,432.020294 159.096298,432.051086 
	C158.428467,431.257996 158.141693,430.444244 157.867645,429.295044 
	C158.887238,429.756348 159.894073,430.553101 160.947906,431.674927 
z"/>
<path fill="#E03C44" opacity="1.000000" stroke="none" 
	d="
M492.062042,512.365662 
	C501.397247,510.034088 510.790619,508.041443 520.599487,506.104187 
	C516.553650,511.010223 512.092346,515.860840 507.337524,520.868774 
	C502.069427,518.252258 497.094788,515.478455 492.062042,512.365662 
z"/>
<path fill="#E88739" opacity="1.000000" stroke="none" 
	d="
M326.378113,140.980469 
	C326.185974,141.107635 326.113708,140.619751 326.095764,140.374207 
	C326.077789,140.128677 326.548706,139.980438 326.791138,140.028168 
	C326.983337,140.397125 326.828888,140.656265 326.378113,140.980469 
z"/>
<path fill="#E28A3E" opacity="1.000000" stroke="none" 
	d="
M627.460449,421.035706 
	C627.651123,420.161713 628.143066,419.154755 629.024048,418.143524 
	C628.862610,419.060394 628.312134,419.981567 627.460449,421.035706 
z"/>
<path fill="#EC7342" opacity="1.000000" stroke="none" 
	d="
M529.111450,501.593750 
	C528.899963,501.285278 529.038635,501.067047 529.511108,500.909912 
	C529.769958,501.224152 529.642212,501.461823 529.111450,501.593750 
z"/>
<path fill="#9C3A1E" opacity="1.000000" stroke="none" 
	d="
M258.873108,560.382568 
	C259.091705,560.244629 259.394745,560.374207 259.841492,560.709717 
	C259.642639,560.827148 259.300079,560.738647 258.873108,560.382568 
z"/>
<path fill="#AA6519" opacity="1.000000" stroke="none" 
	d="
M292.152100,174.926758 
	C299.954590,166.285904 308.120544,157.636429 316.608032,148.859070 
	C315.644196,150.776016 314.674072,153.131683 313.018127,154.811188 
	C306.298462,161.626434 299.368195,168.233994 292.152100,174.926758 
z"/>
<path fill="#9E391F" opacity="1.000000" stroke="none" 
	d="
M168.997269,454.605652 
	C168.332626,453.578064 167.669128,452.157135 167.010834,450.366516 
	C167.676819,451.401978 168.337616,452.807159 168.997269,454.605652 
z"/>
<path fill="#9E391F" opacity="1.000000" stroke="none" 
	d="
M154.230133,348.891113 
	C154.119965,348.691620 154.300568,348.433197 154.773041,348.117432 
	C154.881744,348.316650 154.700409,348.574005 154.230133,348.891113 
z"/>
</svg>